<svg width="360" height="276" viewBox="0 0 360 276" fill="none" xmlns="http://www.w3.org/2000/svg">
<path d="M0 184V8.364C0 3.364 3.22 0 8 0H336C340.784 0 344 3.36 344 8.364V184H0Z" fill="#1E2C33"/>
<path d="M0 184V216C0 220.78 3.22 224 8 224H336C340.784 224 344 220.78 344 216V184H0Z" fill="#F5F5F5"/>
<path d="M328 20H16V168H328V20Z" fill="#586874"/>
<path d="M216 224H128V260H216V224Z" fill="#E6E6E6"/>
<path d="M244 268C244 263.6 240.4 260 236 260H108C103.6 260 100 263.6 100 268C100 272.4 103.6 276 108 276H236C240.4 276 244 272.4 244 268Z" fill="#F5F5F5"/>
<path d="M172 212C176.418 212 180 208.418 180 204C180 199.582 176.418 196 172 196C167.582 196 164 199.582 164 204C164 208.418 167.582 212 172 212Z" fill="#1E2C33"/>
<path d="M360 268C360 272 356 276 352 276H272C268 276 264 273.6 264 268.4V128C264 124 268 120 272 120H352C356 120 360 124 360 128V268Z" fill="#E6E6E6"/>
<path d="M356 136H268V252H356V136Z" fill="#1E2C33"/>
<path d="M312 126C313.105 126 314 125.105 314 124C314 122.895 313.105 122 312 122C310.895 122 310 122.895 310 124C310 125.105 310.895 126 312 126Z" fill="#263740"/>
<path d="M322.32 132H301.78C300.796 132 300 130.992 300 130C300 129.016 300.796 128 301.78 128H322.32C323.308 128 324.1 129.016 324.1 130C324.1 130.992 323.308 132 322.32 132Z" fill="#263740"/>
<path d="M311.996 256C307.584 256 304.004 259.584 304.004 264C304.004 268.408 307.588 272 311.996 272C316.412 272 320.004 268.408 320.004 264C320.004 259.584 316.416 256 311.996 256Z" fill="#263740"/>
<path d="M264 148C261.788 148 260 146.212 260 144V136C260 133.788 261.788 132 264 132C266.212 132 268 133.788 268 136V144C268 146.212 266.212 148 264 148Z" fill="#E6E6E6"/>
<path d="M264 168C261.788 168 260 166.212 260 164V160C260 157.788 261.788 156 264 156C266.212 156 268 157.788 268 160V164C268 166.212 266.212 168 264 168Z" fill="#E6E6E6"/>
<path d="M264 184C261.788 184 260 182.212 260 180V176C260 173.788 261.788 172 264 172C266.212 172 268 173.788 268 176V180C268 182.212 266.212 184 264 184Z" fill="#E6E6E6"/>
<path d="M344 124H340C337.788 124 336 122.212 336 120C336 117.788 337.788 116 340 116H344C346.212 116 348 117.788 348 120C348 122.212 346.212 124 344 124Z" fill="#E6E6E6"/>
<path d="M352 140H272V248H352V140Z" fill="#586874"/>
</svg>
