<svg width="524" height="439" viewBox="0 0 524 439" fill="none" xmlns="http://www.w3.org/2000/svg">
<path d="M82 184V8.364C82 3.364 85.22 0 90 0H418C422.784 0 426 3.36 426 8.364V184H82Z" fill="#1E2C33"/>
<path d="M82 184V216C82 220.78 85.22 224 90 224H418C422.784 224 426 220.78 426 216V184H82Z" fill="#F5F5F5"/>
<path d="M410 20H98V168H410V20Z" fill="#586874"/>
<path d="M298 224H210V260H298V224Z" fill="#E6E6E6"/>
<path d="M326 268C326 263.6 322.4 260 318 260H190C185.6 260 182 263.6 182 268C182 272.4 185.6 276 190 276H318C322.4 276 326 272.4 326 268Z" fill="#F5F5F5"/>
<path d="M254 212C258.418 212 262 208.418 262 204C262 199.582 258.418 196 254 196C249.582 196 246 199.582 246 204C246 208.418 249.582 212 254 212Z" fill="#1E2C33"/>
<path d="M442 268C442 272 438 276 434 276H354C350 276 346 273.6 346 268.4V128C346 124 350 120 354 120H434C438 120 442 124 442 128V268Z" fill="#E6E6E6"/>
<path d="M438 136H350V252H438V136Z" fill="#1E2C33"/>
<path d="M394 126C395.105 126 396 125.105 396 124C396 122.895 395.105 122 394 122C392.895 122 392 122.895 392 124C392 125.105 392.895 126 394 126Z" fill="#263740"/>
<path d="M404.32 132H383.78C382.796 132 382 130.992 382 130C382 129.016 382.796 128 383.78 128H404.32C405.308 128 406.1 129.016 406.1 130C406.1 130.992 405.308 132 404.32 132Z" fill="#263740"/>
<path d="M393.996 256C389.584 256 386.004 259.584 386.004 264C386.004 268.408 389.588 272 393.996 272C398.412 272 402.004 268.408 402.004 264C402.004 259.584 398.416 256 393.996 256Z" fill="#263740"/>
<path d="M346 148C343.788 148 342 146.212 342 144V136C342 133.788 343.788 132 346 132C348.212 132 350 133.788 350 136V144C350 146.212 348.212 148 346 148Z" fill="#E6E6E6"/>
<path d="M346 168C343.788 168 342 166.212 342 164V160C342 157.788 343.788 156 346 156C348.212 156 350 157.788 350 160V164C350 166.212 348.212 168 346 168Z" fill="#E6E6E6"/>
<path d="M346 184C343.788 184 342 182.212 342 180V176C342 173.788 343.788 172 346 172C348.212 172 350 173.788 350 176V180C350 182.212 348.212 184 346 184Z" fill="#E6E6E6"/>
<path d="M426 124H422C419.788 124 418 122.212 418 120C418 117.788 419.788 116 422 116H426C428.212 116 430 117.788 430 120C430 122.212 428.212 124 426 124Z" fill="#E6E6E6"/>
<path d="M434 140H354V248H434V140Z" fill="#586874"/>
<path d="M16.66 422V379.65L19.25 382.24H1.05V373H43.54V382.24H25.34L27.86 379.65V422H16.66ZM61.0903 392.74H84.6803V401.56H61.0903V392.74ZM61.9303 412.9H88.6003V422H50.6603V373H87.6903V382.1H61.9303V412.9ZM93.0114 373H106.101L116.251 387.84L126.401 373H139.701L123.391 396.45L141.031 422H127.661L116.251 405.76L104.981 422H91.8914L109.391 396.94L93.0114 373ZM179.827 373H191.167V422H179.827V373ZM157.567 422H146.227V373H157.567V422ZM180.667 401.91H156.727V392.32H180.667V401.91ZM226.894 422.84C223.02 422.84 219.427 422.21 216.114 420.95C212.847 419.69 210 417.917 207.574 415.63C205.194 413.343 203.327 410.66 201.974 407.58C200.667 404.5 200.014 401.14 200.014 397.5C200.014 393.86 200.667 390.5 201.974 387.42C203.327 384.34 205.217 381.657 207.644 379.37C210.07 377.083 212.917 375.31 216.184 374.05C219.45 372.79 222.997 372.16 226.824 372.16C230.697 372.16 234.244 372.79 237.464 374.05C240.73 375.31 243.554 377.083 245.934 379.37C248.36 381.657 250.25 384.34 251.604 387.42C252.957 390.453 253.634 393.813 253.634 397.5C253.634 401.14 252.957 404.523 251.604 407.65C250.25 410.73 248.36 413.413 245.934 415.7C243.554 417.94 240.73 419.69 237.464 420.95C234.244 422.21 230.72 422.84 226.894 422.84ZM226.824 413.18C229.017 413.18 231.024 412.807 232.844 412.06C234.71 411.313 236.344 410.24 237.744 408.84C239.144 407.44 240.217 405.783 240.964 403.87C241.757 401.957 242.154 399.833 242.154 397.5C242.154 395.167 241.757 393.043 240.964 391.13C240.217 389.217 239.144 387.56 237.744 386.16C236.39 384.76 234.78 383.687 232.914 382.94C231.047 382.193 229.017 381.82 226.824 381.82C224.63 381.82 222.6 382.193 220.734 382.94C218.914 383.687 217.304 384.76 215.904 386.16C214.504 387.56 213.407 389.217 212.614 391.13C211.867 393.043 211.494 395.167 211.494 397.5C211.494 399.787 211.867 401.91 212.614 403.87C213.407 405.783 214.48 407.44 215.834 408.84C217.234 410.24 218.867 411.313 220.734 412.06C222.6 412.807 224.63 413.18 226.824 413.18ZM285.539 422.84C281.759 422.84 278.236 422.233 274.969 421.02C271.749 419.76 268.949 417.987 266.569 415.7C264.189 413.413 262.323 410.73 260.969 407.65C259.663 404.57 259.009 401.187 259.009 397.5C259.009 393.813 259.663 390.43 260.969 387.35C262.323 384.27 264.189 381.587 266.569 379.3C268.996 377.013 271.819 375.263 275.039 374.05C278.259 372.79 281.783 372.16 285.609 372.16C289.856 372.16 293.683 372.907 297.089 374.4C300.543 375.847 303.436 377.993 305.769 380.84L298.489 387.56C296.809 385.647 294.943 384.223 292.889 383.29C290.836 382.31 288.596 381.82 286.169 381.82C283.883 381.82 281.783 382.193 279.869 382.94C277.956 383.687 276.299 384.76 274.899 386.16C273.499 387.56 272.403 389.217 271.609 391.13C270.863 393.043 270.489 395.167 270.489 397.5C270.489 399.833 270.863 401.957 271.609 403.87C272.403 405.783 273.499 407.44 274.899 408.84C276.299 410.24 277.956 411.313 279.869 412.06C281.783 412.807 283.883 413.18 286.169 413.18C288.596 413.18 290.836 412.713 292.889 411.78C294.943 410.8 296.809 409.33 298.489 407.37L305.769 414.09C303.436 416.937 300.543 419.107 297.089 420.6C293.683 422.093 289.833 422.84 285.539 422.84ZM338.035 418.92C331.688 418.92 326.298 418.08 321.865 416.4C317.478 414.72 314.142 412.293 311.855 409.12C309.568 405.9 308.425 401.98 308.425 397.36C308.425 392.74 309.568 388.843 311.855 385.67C314.142 382.45 317.478 380 321.865 378.32C326.298 376.64 331.688 375.8 338.035 375.8C338.128 375.8 338.385 375.8 338.805 375.8C339.272 375.8 339.715 375.8 340.135 375.8C340.602 375.8 340.858 375.8 340.905 375.8C347.205 375.8 352.525 376.64 356.865 378.32C361.252 380 364.565 382.45 366.805 385.67C369.045 388.89 370.165 392.787 370.165 397.36C370.165 401.887 369.045 405.783 366.805 409.05C364.612 412.27 361.368 414.72 357.075 416.4C352.828 418.08 347.625 418.92 341.465 418.92C341.325 418.92 340.998 418.92 340.485 418.92C339.972 418.92 339.458 418.92 338.945 418.92C338.478 418.92 338.175 418.92 338.035 418.92ZM339.085 410.17C339.225 410.17 339.412 410.17 339.645 410.17C339.878 410.17 340.042 410.17 340.135 410.17C344.428 410.17 347.975 409.703 350.775 408.77C353.622 407.79 355.745 406.367 357.145 404.5C358.545 402.587 359.245 400.183 359.245 397.29C359.245 394.397 358.522 392.017 357.075 390.15C355.628 388.283 353.505 386.907 350.705 386.02C347.952 385.087 344.475 384.62 340.275 384.62C340.182 384.62 339.995 384.62 339.715 384.62C339.482 384.62 339.272 384.62 339.085 384.62C334.652 384.62 330.988 385.063 328.095 385.95C325.202 386.837 323.032 388.237 321.585 390.15C320.138 392.017 319.415 394.42 319.415 397.36C319.415 400.3 320.185 402.727 321.725 404.64C323.265 406.507 325.482 407.907 328.375 408.84C331.315 409.727 334.885 410.17 339.085 410.17ZM334.115 424.17V370.9H344.545V424.17H334.115ZM389.079 392.74H412.669V401.56H389.079V392.74ZM389.919 412.9H416.589V422H378.649V373H415.679V382.1H389.919V412.9ZM425.748 422V373H446.958C451.345 373 455.125 373.723 458.298 375.17C461.472 376.57 463.922 378.6 465.648 381.26C467.375 383.92 468.238 387.093 468.238 390.78C468.238 394.42 467.375 397.57 465.648 400.23C463.922 402.89 461.472 404.943 458.298 406.39C455.125 407.79 451.345 408.49 446.958 408.49H432.048L437.088 403.38V422H425.748ZM437.088 404.64L432.048 399.25H446.328C449.828 399.25 452.442 398.503 454.168 397.01C455.895 395.517 456.758 393.44 456.758 390.78C456.758 388.073 455.895 385.973 454.168 384.48C452.442 382.987 449.828 382.24 446.328 382.24H432.048L437.088 376.85V404.64ZM467.728 422L489.568 373H500.768L522.678 422H510.778L492.858 378.74H497.338L479.348 422H467.728ZM478.648 411.5L481.658 402.89H506.858L509.938 411.5H478.648Z" fill="white"/>
</svg>
