<svg width="137" height="69" viewBox="0 0 137 69" fill="none" xmlns="http://www.w3.org/2000/svg">
<path d="M4.14 64V53.434L4.932 54.226H0.27V51.4H11.502V54.226H6.858L7.65 53.434V64H4.14ZM16.4209 56.278H22.2709V58.942H16.4209V56.278ZM16.6729 61.246H23.2609V64H13.1449V51.4H23.0269V54.154H16.6729V61.246ZM24.2319 51.382H28.3179L30.5679 54.802L32.7999 51.382H36.9399L32.7999 57.412L37.2999 64H33.1059L30.5679 60.274L28.0479 64H23.9439L28.4259 57.574L24.2319 51.382ZM46.8111 51.4H50.3751V64H46.8111V51.4ZM41.9511 64H38.3871V51.4H41.9511V64ZM47.0631 59.086H41.6991V56.134H47.0631V59.086ZM59.2744 64.252C58.2664 64.252 57.3364 64.09 56.4844 63.766C55.6324 63.442 54.8884 62.986 54.2524 62.398C53.6284 61.798 53.1424 61.102 52.7944 60.31C52.4464 59.518 52.2724 58.648 52.2724 57.7C52.2724 56.752 52.4464 55.882 52.7944 55.09C53.1424 54.298 53.6284 53.608 54.2524 53.02C54.8884 52.42 55.6324 51.958 56.4844 51.634C57.3364 51.31 58.2664 51.148 59.2744 51.148C60.2944 51.148 61.2244 51.31 62.0644 51.634C62.9164 51.958 63.6544 52.42 64.2784 53.02C64.9024 53.608 65.3884 54.298 65.7364 55.09C66.0964 55.882 66.2764 56.752 66.2764 57.7C66.2764 58.648 66.0964 59.524 65.7364 60.328C65.3884 61.12 64.9024 61.81 64.2784 62.398C63.6544 62.986 62.9164 63.442 62.0644 63.766C61.2244 64.09 60.2944 64.252 59.2744 64.252ZM59.2744 61.3C59.7544 61.3 60.1984 61.216 60.6064 61.048C61.0264 60.88 61.3864 60.64 61.6864 60.328C61.9984 60.004 62.2384 59.62 62.4064 59.176C62.5864 58.732 62.6764 58.24 62.6764 57.7C62.6764 57.148 62.5864 56.656 62.4064 56.224C62.2384 55.78 61.9984 55.402 61.6864 55.09C61.3864 54.766 61.0264 54.52 60.6064 54.352C60.1984 54.184 59.7544 54.1 59.2744 54.1C58.7944 54.1 58.3444 54.184 57.9244 54.352C57.5164 54.52 57.1564 54.766 56.8444 55.09C56.5444 55.402 56.3044 55.78 56.1244 56.224C55.9564 56.656 55.8724 57.148 55.8724 57.7C55.8724 58.24 55.9564 58.732 56.1244 59.176C56.3044 59.62 56.5444 60.004 56.8444 60.328C57.1564 60.64 57.5164 60.88 57.9244 61.048C58.3444 61.216 58.7944 61.3 59.2744 61.3ZM74.32 64.252C73.324 64.252 72.4 64.096 71.548 63.784C70.708 63.46 69.976 63.004 69.352 62.416C68.74 61.828 68.26 61.138 67.912 60.346C67.564 59.542 67.39 58.66 67.39 57.7C67.39 56.74 67.564 55.864 67.912 55.072C68.26 54.268 68.74 53.572 69.352 52.984C69.976 52.396 70.708 51.946 71.548 51.634C72.4 51.31 73.324 51.148 74.32 51.148C75.484 51.148 76.522 51.352 77.434 51.76C78.358 52.168 79.126 52.756 79.738 53.524L77.47 55.576C77.062 55.096 76.612 54.73 76.12 54.478C75.64 54.226 75.1 54.1 74.5 54.1C73.984 54.1 73.51 54.184 73.078 54.352C72.646 54.52 72.274 54.766 71.962 55.09C71.662 55.402 71.422 55.78 71.242 56.224C71.074 56.668 70.99 57.16 70.99 57.7C70.99 58.24 71.074 58.732 71.242 59.176C71.422 59.62 71.662 60.004 71.962 60.328C72.274 60.64 72.646 60.88 73.078 61.048C73.51 61.216 73.984 61.3 74.5 61.3C75.1 61.3 75.64 61.174 76.12 60.922C76.612 60.67 77.062 60.304 77.47 59.824L79.738 61.876C79.126 62.632 78.358 63.22 77.434 63.64C76.522 64.048 75.484 64.252 74.32 64.252ZM88.0144 63.244C86.3344 63.244 84.9124 63.028 83.7484 62.596C82.5964 62.164 81.7204 61.534 81.1204 60.706C80.5324 59.866 80.2384 58.852 80.2384 57.664C80.2384 56.464 80.5324 55.45 81.1204 54.622C81.7204 53.782 82.6024 53.146 83.7664 52.714C84.9304 52.282 86.3524 52.066 88.0324 52.066C88.0564 52.066 88.1344 52.066 88.2664 52.066C88.4104 52.066 88.5544 52.066 88.6984 52.066C88.8424 52.066 88.9204 52.066 88.9324 52.066C90.6004 52.066 91.9984 52.288 93.1264 52.732C94.2664 53.164 95.1304 53.8 95.7184 54.64C96.3064 55.468 96.6004 56.476 96.6004 57.664C96.6004 58.84 96.3124 59.848 95.7364 60.688C95.1724 61.516 94.3324 62.152 93.2164 62.596C92.1004 63.028 90.7264 63.244 89.0944 63.244C89.0704 63.244 88.9744 63.244 88.8064 63.244C88.6384 63.244 88.4764 63.244 88.3204 63.244C88.1644 63.244 88.0624 63.244 88.0144 63.244ZM88.3384 60.508C88.3744 60.508 88.4284 60.508 88.5004 60.508C88.5844 60.508 88.6444 60.508 88.6804 60.508C89.7124 60.508 90.5584 60.406 91.2184 60.202C91.8784 59.998 92.3644 59.686 92.6764 59.266C92.9884 58.846 93.1444 58.306 93.1444 57.646C93.1444 56.974 92.9824 56.434 92.6584 56.026C92.3344 55.618 91.8484 55.318 91.2004 55.126C90.5524 54.922 89.7244 54.82 88.7164 54.82C88.6804 54.82 88.6204 54.82 88.5364 54.82C88.4644 54.82 88.3984 54.82 88.3384 54.82C87.2584 54.82 86.3764 54.916 85.6924 55.108C85.0084 55.3 84.5044 55.606 84.1804 56.026C83.8564 56.434 83.6944 56.98 83.6944 57.664C83.6944 58.336 83.8684 58.882 84.2164 59.302C84.5764 59.722 85.0984 60.028 85.7824 60.22C86.4784 60.412 87.3304 60.508 88.3384 60.508ZM86.7904 64.594V50.806H90.0484V64.594H86.7904ZM101.728 56.278H107.578V58.942H101.728V56.278ZM101.98 61.246H108.568V64H98.4516V51.4H108.334V54.154H101.98V61.246ZM110.598 64V51.4H116.358C117.51 51.4 118.5 51.586 119.328 51.958C120.168 52.33 120.816 52.87 121.272 53.578C121.728 54.274 121.956 55.102 121.956 56.062C121.956 57.01 121.728 57.832 121.272 58.528C120.816 59.224 120.168 59.764 119.328 60.148C118.5 60.52 117.51 60.706 116.358 60.706H112.578L114.162 59.158V64H110.598ZM114.162 59.536L112.578 57.898H116.142C116.886 57.898 117.438 57.736 117.798 57.412C118.17 57.088 118.356 56.638 118.356 56.062C118.356 55.474 118.17 55.018 117.798 54.694C117.438 54.37 116.886 54.208 116.142 54.208H112.578L114.162 52.57V59.536ZM121.678 64L127.24 51.4H130.75L136.33 64H132.622L128.266 53.146H129.67L125.314 64H121.678ZM124.72 61.552L125.638 58.924H131.794L132.712 61.552H124.72Z" fill="white"/>
<path d="M40 25.9471V1.82074C40 1.13391 40.4472 0.671814 41.1111 0.671814H86.6667C87.3311 0.671814 87.7778 1.13336 87.7778 1.82074V25.9471H40Z" fill="#1E2C33"/>
<path d="M40 25.9471V30.3429C40 30.9995 40.4472 31.4418 41.1111 31.4418H86.6667C87.3311 31.4418 87.7778 30.9995 87.7778 30.3429V25.9471H40Z" fill="#F5F5F5"/>
<path d="M85.5556 3.41913H42.2222V23.7493H85.5556V3.41913Z" fill="#586874"/>
<path d="M70 31.4418H57.7778V36.3869H70V31.4418Z" fill="#E6E6E6"/>
<path d="M73.8889 37.4858C73.8889 36.8814 73.3889 36.3869 72.7778 36.3869H55C54.3889 36.3869 53.8889 36.8814 53.8889 37.4858C53.8889 38.0902 54.3889 38.5848 55 38.5848H72.7778C73.3889 38.5848 73.8889 38.0902 73.8889 37.4858Z" fill="#F5F5F5"/>
<path d="M63.8889 29.7934C64.5025 29.7934 65 29.3014 65 28.6944C65 28.0875 64.5025 27.5955 63.8889 27.5955C63.2752 27.5955 62.7778 28.0875 62.7778 28.6944C62.7778 29.3014 63.2752 29.7934 63.8889 29.7934Z" fill="#1E2C33"/>
<path d="M90 37.4859C90 38.0354 89.4444 38.5848 88.8889 38.5848H77.7777C77.2222 38.5848 76.6666 38.2552 76.6666 37.5409V18.2547C76.6666 17.7052 77.2222 17.1558 77.7777 17.1558H88.8889C89.4444 17.1558 90 17.7052 90 18.2547V37.4859Z" fill="#E6E6E6"/>
<path d="M89.4445 19.3536H77.2222V35.288H89.4445V19.3536Z" fill="#1E2C33"/>
<path d="M83.3333 17.9799C83.4867 17.9799 83.6111 17.8569 83.6111 17.7052C83.6111 17.5534 83.4867 17.4304 83.3333 17.4304C83.1799 17.4304 83.0555 17.5534 83.0555 17.7052C83.0555 17.8569 83.1799 17.9799 83.3333 17.9799Z" fill="#263740"/>
<path d="M84.7667 18.804H81.914C81.7773 18.804 81.6667 18.6656 81.6667 18.5293C81.6667 18.3941 81.7773 18.2546 81.914 18.2546H84.7667C84.904 18.2546 85.014 18.3941 85.014 18.5293C85.014 18.6656 84.904 18.804 84.7667 18.804Z" fill="#263740"/>
<path d="M83.3328 35.8375C82.72 35.8375 82.2228 36.3298 82.2228 36.9364C82.2228 37.5419 82.7206 38.0353 83.3328 38.0353C83.9461 38.0353 84.445 37.5419 84.445 36.9364C84.445 36.3298 83.9467 35.8375 83.3328 35.8375Z" fill="#263740"/>
<path d="M76.6666 21.0019C76.3594 21.0019 76.1111 20.7563 76.1111 20.4525V19.3535C76.1111 19.0497 76.3594 18.8041 76.6666 18.8041C76.9739 18.8041 77.2222 19.0497 77.2222 19.3535V20.4525C77.2222 20.7563 76.9739 21.0019 76.6666 21.0019Z" fill="#E6E6E6"/>
<path d="M76.6666 23.7493C76.3594 23.7493 76.1111 23.5037 76.1111 23.1998V22.6504C76.1111 22.3465 76.3594 22.1009 76.6666 22.1009C76.9739 22.1009 77.2222 22.3465 77.2222 22.6504V23.1998C77.2222 23.5037 76.9739 23.7493 76.6666 23.7493Z" fill="#E6E6E6"/>
<path d="M76.6666 25.9471C76.3594 25.9471 76.1111 25.7015 76.1111 25.3976V24.8482C76.1111 24.5443 76.3594 24.2987 76.6666 24.2987C76.9739 24.2987 77.2222 24.5443 77.2222 24.8482V25.3976C77.2222 25.7015 76.9739 25.9471 76.6666 25.9471Z" fill="#E6E6E6"/>
<path d="M87.7778 17.7052H87.2222C86.915 17.7052 86.6667 17.4596 86.6667 17.1557C86.6667 16.8519 86.915 16.6063 87.2222 16.6063H87.7778C88.085 16.6063 88.3334 16.8519 88.3334 17.1557C88.3334 17.4596 88.085 17.7052 87.7778 17.7052Z" fill="#E6E6E6"/>
<path d="M88.8889 19.903H77.7778V34.7385H88.8889V19.903Z" fill="#586874"/>
</svg>
