<svg width="612" height="612" viewBox="0 0 612 612" fill="none" xmlns="http://www.w3.org/2000/svg">
<path d="M306 612C474.999 612 612 474.999 612 306C612 137.001 474.999 0 306 0C137.001 0 0 137.001 0 306C0 474.999 137.001 612 306 612Z" fill="#4AB8A1"/>
<path d="M143.25 464.35V500H133.95V464.35H121.488V456.724H155.712V464.35H143.25ZM162.136 500V456.724H189.788V464.35H171.436V474.27H189.168V481.896H171.436V492.374H189.788V500H162.136ZM230.994 500H220.392L215.928 491.382L212.89 484.562H212.332L209.232 491.382L204.644 500H194.91L207.062 477.618L195.716 456.724H206.318L209.852 463.606L213.014 470.55H213.51L216.734 463.606L220.454 456.724H230.188L218.842 477.742L230.994 500ZM255.583 481.896H244.671V500H235.309V456.724H244.671V474.27H255.583V456.724H264.945V500H255.583V481.896ZM287.303 500.744C281.516 500.744 277.238 498.781 274.469 494.854C271.741 490.927 270.377 485.43 270.377 478.362C270.377 471.294 271.741 465.797 274.469 461.87C277.238 457.943 281.516 455.98 287.303 455.98C293.09 455.98 297.347 457.943 300.075 461.87C302.844 465.797 304.229 471.294 304.229 478.362C304.229 485.43 302.844 490.927 300.075 494.854C297.347 498.781 293.09 500.744 287.303 500.744ZM287.303 493.242C289.948 493.242 291.767 492.271 292.759 490.328C293.792 488.344 294.309 485.595 294.309 482.082V474.58C294.309 471.108 293.792 468.401 292.759 466.458C291.767 464.474 289.948 463.482 287.303 463.482C284.658 463.482 282.818 464.474 281.785 466.458C280.793 468.401 280.297 471.108 280.297 474.58V482.144C280.297 485.616 280.793 488.344 281.785 490.328C282.818 492.271 284.658 493.242 287.303 493.242ZM325.471 500.744C319.684 500.744 315.386 498.801 312.575 494.916C309.806 490.989 308.421 485.471 308.421 478.362C308.421 471.253 309.806 465.755 312.575 461.87C315.386 457.943 319.684 455.98 325.471 455.98C327.703 455.98 329.666 456.29 331.361 456.91C333.097 457.489 334.585 458.315 335.825 459.39C337.065 460.465 338.078 461.767 338.863 463.296C339.69 464.825 340.33 466.541 340.785 468.442L332.105 470.55C331.857 469.517 331.568 468.566 331.237 467.698C330.906 466.83 330.472 466.086 329.935 465.466C329.439 464.846 328.798 464.371 328.013 464.04C327.269 463.668 326.36 463.482 325.285 463.482C322.764 463.482 320.966 464.474 319.891 466.458C318.858 468.401 318.341 471.108 318.341 474.58V482.144C318.341 485.616 318.858 488.344 319.891 490.328C320.966 492.271 322.764 493.242 325.285 493.242C327.434 493.242 328.984 492.581 329.935 491.258C330.927 489.935 331.65 488.241 332.105 486.174L340.785 488.282C340.33 490.183 339.69 491.899 338.863 493.428C338.078 494.957 337.065 496.28 335.825 497.396C334.585 498.471 333.097 499.297 331.361 499.876C329.666 500.455 327.703 500.744 325.471 500.744ZM357.067 496.962C353.016 496.466 349.916 494.73 347.767 491.754C345.617 488.737 344.543 484.293 344.543 478.424C344.543 472.637 345.617 468.235 347.767 465.218C349.957 462.159 353.057 460.382 357.067 459.886V454.74H366.243V459.886C370.293 460.382 373.393 462.139 375.543 465.156C377.692 468.132 378.767 472.555 378.767 478.424C378.767 484.211 377.671 488.633 375.481 491.692C373.331 494.709 370.252 496.466 366.243 496.962V502.108H357.067V496.962ZM357.687 466.396C354.38 466.768 352.727 469.393 352.727 474.27V482.578C352.727 487.455 354.38 490.08 357.687 490.452V466.396ZM365.623 490.452C368.929 490.08 370.583 487.455 370.583 482.578V474.27C370.583 469.393 368.929 466.768 365.623 466.396V490.452ZM385.19 500V456.724H412.842V464.35H394.49V474.27H412.222V481.896H394.49V492.374H412.842V500H385.19ZM422.118 500V456.724H438.858C440.966 456.724 442.847 457.055 444.5 457.716C446.154 458.336 447.538 459.245 448.654 460.444C449.812 461.643 450.68 463.089 451.258 464.784C451.837 466.479 452.126 468.38 452.126 470.488C452.126 472.596 451.837 474.497 451.258 476.192C450.68 477.887 449.812 479.333 448.654 480.532C447.538 481.731 446.154 482.661 444.5 483.322C442.847 483.942 440.966 484.252 438.858 484.252H431.48V500H422.118ZM431.48 476.75H436.502C438.693 476.75 440.202 476.337 441.028 475.51C441.896 474.683 442.33 473.319 442.33 471.418V469.558C442.33 467.657 441.896 466.293 441.028 465.466C440.202 464.639 438.693 464.226 436.502 464.226H431.48V476.75ZM481.552 500L478.824 489.584H466.982L464.316 500H454.892L466.61 456.724H479.754L491.472 500H481.552ZM473.182 465.714H472.686L468.47 482.082H477.398L473.182 465.714Z" fill="white"/>
<path d="M126 296V120.364C126 115.364 129.22 112 134 112H462C466.784 112 470 115.36 470 120.364V296H126Z" fill="#1E2C33"/>
<path d="M126 296V328C126 332.78 129.22 336 134 336H462C466.784 336 470 332.78 470 328V296H126Z" fill="#F5F5F5"/>
<path d="M454 132H142V280H454V132Z" fill="#586874"/>
<path d="M342 336H254V372H342V336Z" fill="#E6E6E6"/>
<path d="M370 380C370 375.6 366.4 372 362 372H234C229.6 372 226 375.6 226 380C226 384.4 229.6 388 234 388H362C366.4 388 370 384.4 370 380Z" fill="#F5F5F5"/>
<path d="M298 324C302.418 324 306 320.418 306 316C306 311.582 302.418 308 298 308C293.582 308 290 311.582 290 316C290 320.418 293.582 324 298 324Z" fill="#1E2C33"/>
<path d="M486 380C486 384 482 388 478 388H398C394 388 390 385.6 390 380.4V240C390 236 394 232 398 232H478C482 232 486 236 486 240V380Z" fill="#E6E6E6"/>
<path d="M482 248H394V364H482V248Z" fill="#1E2C33"/>
<path d="M438 238C439.105 238 440 237.105 440 236C440 234.895 439.105 234 438 234C436.895 234 436 234.895 436 236C436 237.105 436.895 238 438 238Z" fill="#263740"/>
<path d="M448.32 244H427.78C426.796 244 426 242.992 426 242C426 241.016 426.796 240 427.78 240H448.32C449.308 240 450.1 241.016 450.1 242C450.1 242.992 449.308 244 448.32 244Z" fill="#263740"/>
<path d="M437.996 368C433.584 368 430.004 371.584 430.004 376C430.004 380.408 433.588 384 437.996 384C442.412 384 446.004 380.408 446.004 376C446.004 371.584 442.416 368 437.996 368Z" fill="#263740"/>
<path d="M390 260C387.788 260 386 258.212 386 256V248C386 245.788 387.788 244 390 244C392.212 244 394 245.788 394 248V256C394 258.212 392.212 260 390 260Z" fill="#E6E6E6"/>
<path d="M390 280C387.788 280 386 278.212 386 276V272C386 269.788 387.788 268 390 268C392.212 268 394 269.788 394 272V276C394 278.212 392.212 280 390 280Z" fill="#E6E6E6"/>
<path d="M390 296C387.788 296 386 294.212 386 292V288C386 285.788 387.788 284 390 284C392.212 284 394 285.788 394 288V292C394 294.212 392.212 296 390 296Z" fill="#E6E6E6"/>
<path d="M470 236H466C463.788 236 462 234.212 462 232C462 229.788 463.788 228 466 228H470C472.212 228 474 229.788 474 232C474 234.212 472.212 236 470 236Z" fill="#E6E6E6"/>
<path d="M478 252H398V360H478V252Z" fill="#586874"/>
</svg>
